HIERARCHY
ROOT Hips
{
	OFFSET 0.00000 0.00000 0.00000
	CHANNELS 6 Xposition Yposition Zposition Zrotation Yrotation Xrotation 
	JOINT LHipJoint
	{
		OFFSET 0 0 0
		CHANNELS 3 Zrotation Yrotation Xrotation
		JOINT LeftUpLeg
		{
			OFFSET 1.37733 -1.58235 0.71371
			CHANNELS 3 Zrotation Yrotation Xrotation
			JOINT LeftLeg
			{
				OFFSET 2.33951 -6.42775 0.00000
				CHANNELS 3 Zrotation Yrotation Xrotation
				JOINT LeftFoot
				{
					OFFSET 2.30523 -6.33358 0.00000
					CHANNELS 3 Zrotation Yrotation Xrotation
					JOINT LeftToeBase
					{
						OFFSET 0.05388 -0.14857 1.53863
						CHANNELS 3 Zrotation Yrotation Xrotation
						End Site
						{
							OFFSET 0.00000 -0.00000 0.79208
						}
					}
				}
			}
		}
	}
	JOINT RHipJoint
	{
		OFFSET 0 0 0
		CHANNELS 3 Zrotation Yrotation Xrotation
		JOINT RightUpLeg
		{
			OFFSET -1.47839 -1.58235 0.71371
			CHANNELS 3 Zrotation Yrotation Xrotation
			JOINT RightLeg
			{
				OFFSET -2.26534 -6.22397 0.00000
				CHANNELS 3 Zrotation Yrotation Xrotation
				JOINT RightFoot
				{
					OFFSET -2.27037 -6.23779 0.00000
					CHANNELS 3 Zrotation Yrotation Xrotation
					JOINT RightToeBase
					{
						OFFSET -0.09543 -0.26220 1.62615
						CHANNELS 3 Zrotation Yrotation Xrotation
						End Site
						{
							OFFSET -0.00000 -0.00000 0.83991
						}
					}
				}
			}
		}
	}
	JOINT LowerBack
	{
		OFFSET 0 0 0
		CHANNELS 3 Zrotation Yrotation Xrotation
		JOINT Spine
		{
			OFFSET 0.00101 1.81877 -0.00412
			CHANNELS 3 Zrotation Yrotation Xrotation
			JOINT Spine1
			{
				OFFSET 0.00322 1.81934 -0.03962
				CHANNELS 3 Zrotation Yrotation Xrotation
				JOINT Neck
				{
					OFFSET 0 0 0
					CHANNELS 3 Zrotation Yrotation Xrotation
					JOINT Neck1
					{
						OFFSET -0.13795 1.66192 0.22650
						CHANNELS 3 Zrotation Yrotation Xrotation
						JOINT Head
						{
							OFFSET 0.14844 1.65995 -0.39123
							CHANNELS 3 Zrotation Yrotation Xrotation
							End Site
							{
								OFFSET 0.04109 1.72502 -0.16783
							}
						}
					}
				}
				JOINT LeftShoulder
				{
					OFFSET 0 0 0
					CHANNELS 3 Zrotation Yrotation Xrotation
					JOINT LeftArm
					{
						OFFSET 3.25446 1.41983 0.32106
						CHANNELS 3 Zrotation Yrotation Xrotation
						JOINT LeftForeArm
						{
							OFFSET 4.05444 -0.00000 -0.00000
							CHANNELS 3 Zrotation Yrotation Xrotation
							JOINT LeftHand
							{
								OFFSET 3.21205 -0.00000 0.00000
								CHANNELS 3 Zrotation Yrotation Xrotation
								JOINT LeftFingerBase
								{
									OFFSET 0 0 0
									CHANNELS 3 Zrotation Yrotation Xrotation
									JOINT LeftHandIndex1
									{
										OFFSET 0.70741 -0.00000 0.00000
										CHANNELS 3 Zrotation Yrotation Xrotation
										End Site
										{
											OFFSET 0.57033 -0.00000 0.00000
										}
									}
								}
								JOINT LThumb
								{
									OFFSET 0 0 0
									CHANNELS 3 Zrotation Yrotation Xrotation
									End Site
									{
										OFFSET 0.57904 -0.00000 0.57904
									}
								}
							}
						}
					}
				}
				JOINT RightShoulder
				{
					OFFSET 0 0 0
					CHANNELS 3 Zrotation Yrotation Xrotation
					JOINT RightArm
					{
						OFFSET -3.30007 1.25485 0.33947
						CHANNELS 3 Zrotation Yrotation Xrotation
						JOINT RightForeArm
						{
							OFFSET -3.74048 -0.00000 -0.00000
							CHANNELS 3 Zrotation Yrotation Xrotation
							JOINT RightHand
							{
								OFFSET -3.16030 -0.00000 0.00000
								CHANNELS 3 Zrotation Yrotation Xrotation
								JOINT RightFingerBase
								{
									OFFSET 0 0 0
									CHANNELS 3 Zrotation Yrotation Xrotation
									JOINT RightHandIndex1
									{
										OFFSET -0.71703 -0.00000 0.00000
										CHANNELS 3 Zrotation Yrotation Xrotation
										End Site
										{
											OFFSET -0.57809 -0.00000 0.00000
										}
									}
								}
								JOINT RThumb
								{
									OFFSET 0 0 0
									CHANNELS 3 Zrotation Yrotation Xrotation
									End Site
									{
										OFFSET -0.58691 -0.00000 0.58691
									}
								}
							}
						}
					}
				}
			}
		}
	}
}
MOTION
Frames: 12
Frame Time: .0083333
10.2635 14.5874 3.2066 0 0 0 0 0 0 -21 0 0 0 0 0 0 0 0 0 0 0 0 0 0 21 0 0 0 0 0 0 0 0 0 0 0 0 0 0 0 0 0 0 0 0 0 0 -16 0 0 21 0 0 11 0 0 0 -8 0 0 0 0 0 0 0 0 0 0 0 0 0 0 0 0 0 0 0 0 8 0 0 0 0 0 0 0 0 0 0 0 0 0 0 0 0 0
10.2635 14.5874 3.2066 -52.9556 89.8678 -56.0102 0.0000 0.0000 0.0000 -9.4989 -1.7457 -21.2135 9.4441 17.0851 57.6136 0.0000 0.0000 0.0000 0.0000 0.0000 0.0000 0.0000 0.0000 0.0000 10.5505 -1.3309 -19.7331 -8.5389 -16.5017 54.4813 -0.0348 10.1778 15.0401 -0.8348 5.8285 -16.2875 -0.1360 -0.4617 -0.4558 0.0863 -0.6056 1.7702 0.1511 -0.3014 2.0710 -15.5507 -14.1415 -16.3686 13.5852 -18.9396 19.3866 4.2277 -8.3325 11.9179 -0.0000 -0.0000 0.0000 -0.0000 0.0000 -0.0000 -0.0000 0.0000 -0.0000 -0.0000 -0.0000 0.0000 -0.0000 -0.0000 0.0000 -0.0000 -0.0000 0.0000 0.0000 0.0000 0.0000 -0.0000 -0.0000 0.0000 0.0000 -0.0000 -0.0000 0.0000 -0.0000 -0.0000 0.0000 0.0000 0.0000 0.0000 0.0000 0.0000 0.0000 0.0000 0.0000 0.0000 -0.0000 0.0000
10.2664 14.5864 3.2062 -64.9964 89.8576 -68.0312 0.0000 0.0000 0.0000 -9.4767 -1.7548 -21.2292 9.4525 17.0902 57.6421 0.0000 0.0000 0.0000 0.0000 0.0000 0.0000 0.0000 0.0000 0.0000 10.5753 -1.3394 -19.7297 -8.5330 -16.4977 54.4608 -0.0340 10.1887 15.0425 -0.7298 5.4583 -15.2206 -0.1257 -0.4414 -0.5036 0.0645 -0.5789 1.7362 0.1233 -0.2879 2.0625 -15.5098 -14.1528 -16.3350 13.5819 -18.9780 19.4448 4.2146 -8.3465 11.9352 0.0000 0.0000 0.0000 -0.0000 0.0000 -0.0000 -0.0000 0.0000 -0.0000 -0.0000 -0.0000 0.0000 -0.0000 -0.0000 0.0000 -0.0000 -0.0000 0.0000 0.0000 0.0000 0.0000 0.0000 0.0000 0.0000 0.0000 -0.0000 -0.0000 0.0000 -0.0000 -0.0000 0.0000 0.0000 0.0000 0.0000 0.0000 0.0000 0.0000 0.0000 0.0000 0.0000 -0.0000 0.0000
10.2707 14.5854 3.2064 -77.9306 89.8216 -80.9228 0.0000 0.0000 0.0000 -9.4281 -1.7737 -21.2622 9.4651 17.0979 57.6851 0.0000 0.0000 0.0000 0.0000 0.0000 0.0000 0.0000 0.0000 0.0000 10.6355 -1.3373 -19.7533 -8.5364 -16.4999 54.4725 -0.0411 10.1607 15.1113 -0.6975 5.3385 -14.8766 -0.1146 -0.4237 -0.6263 0.0709 -0.5560 1.7118 0.1234 -0.2765 2.1063 -15.4970 -14.1619 -16.3272 13.5162 -18.9931 19.5653 4.1867 -8.3562 11.9724 -0.0000 -0.0000 0.0000 -0.0000 0.0000 -0.0000 -0.0000 0.0000 -0.0000 -0.0000 -0.0000 0.0000 -0.0000 -0.0000 0.0000 -0.0000 -0.0000 0.0000 0.0000 0.0000 0.0000 -0.0000 -0.0000 0.0000 0.0000 -0.0000 -0.0000 0.0000 -0.0000 -0.0000 0.0000 0.0000 0.0000 0.0000 0.0000 0.0000 0.0000 0.0000 0.0000 0.0000 -0.0000 0.0000
10.2747 14.5843 3.2054 -84.7311 89.7855 -87.7130 0.0000 0.0000 0.0000 -9.3925 -1.7881 -21.2585 9.4595 17.0945 57.6661 0.0000 0.0000 0.0000 0.0000 0.0000 0.0000 0.0000 0.0000 0.0000 10.6793 -1.3496 -19.7573 -8.5472 -16.5074 54.5107 -0.0433 10.1517 15.1336 -0.7139 5.3997 -15.0523 -0.1070 -0.4492 -0.6783 0.1217 -0.5911 1.7162 0.1698 -0.2944 2.1406 -15.6384 -14.1421 -16.4745 13.5322 -18.9293 19.7026 4.2200 -8.3253 12.0604 0.0000 -0.0000 0.0000 -0.0000 0.0000 -0.0000 -0.0000 0.0000 -0.0000 -0.0000 -0.0000 0.0000 -0.0000 -0.0000 0.0000 -0.0000 -0.0000 0.0000 0.0000 0.0000 0.0000 0.0000 -0.0000 0.0000 0.0000 -0.0000 -0.0000 0.0000 -0.0000 -0.0000 0.0000 0.0000 0.0000 0.0000 0.0000 0.0000 0.0000 0.0000 0.0000 0.0000 -0.0000 0.0000
10.2781 14.5828 3.2068 -84.6675 89.6999 -87.7099 0.0000 0.0000 0.0000 -9.2822 -1.7337 -21.1897 9.4491 17.0882 57.6308 0.0000 0.0000 0.0000 0.0000 0.0000 0.0000 0.0000 0.0000 0.0000 10.7970 -1.3222 -19.5879 -8.5182 -16.4875 54.4085 -0.0209 10.3411 15.0512 -0.6903 5.3117 -14.7997 -0.0684 -0.4563 -0.6600 0.1678 -0.6020 1.7277 0.1952 -0.2996 2.1423 -15.7360 -14.1280 -16.5215 13.5503 -18.8892 19.7622 4.2476 -8.3088 12.0988 -0.0000 0.0000 0.0000 -0.0000 0.0000 -0.0000 -0.0000 0.0000 -0.0000 -0.0000 -0.0000 0.0000 -0.0000 -0.0000 0.0000 -0.0000 -0.0000 0.0000 0.0000 0.0000 0.0000 -0.0000 0.0000 0.0000 0.0000 -0.0000 -0.0000 0.0000 -0.0000 -0.0000 0.0000 0.0000 0.0000 0.0000 0.0000 0.0000 0.0000 0.0000 0.0000 0.0000 -0.0000 0.0000
10.2824 14.5813 3.2076 -82.5803 89.6385 -85.7071 0.0000 0.0000 0.0000 -9.2058 -1.6596 -21.0740 9.4366 17.0806 57.5883 0.0000 0.0000 0.0000 0.0000 0.0000 0.0000 0.0000 0.0000 0.0000 10.8955 -1.2799 -19.2961 -8.4525 -16.4422 54.1766 -0.0011 10.5182 14.9943 -0.7335 5.4719 -15.2595 -0.0366 -0.4283 -0.6777 0.1721 -0.5653 1.7302 0.1826 -0.2807 2.1544 -15.6905 -14.1144 -16.3275 13.4861 -18.8794 19.6746 4.2293 -8.3208 12.0131 0.0000 0.0000 0.0000 -0.0000 0.0000 -0.0000 -0.0000 0.0000 -0.0000 -0.0000 -0.0000 0.0000 -0.0000 -0.0000 0.0000 -0.0000 -0.0000 0.0000 0.0000 0.0000 0.0000 0.0000 0.0000 0.0000 0.0000 -0.0000 -0.0000 0.0000 -0.0000 -0.0000 0.0000 0.0000 0.0000 0.0000 0.0000 0.0000 0.0000 0.0000 0.0000 0.0000 -0.0000 0.0000
10.2874 14.5812 3.2058 -78.6362 89.7202 -81.8192 0.0000 0.0000 0.0000 -9.3249 -1.6306 -20.9554 9.4144 17.0671 57.5126 0.0000 0.0000 0.0000 0.0000 0.0000 0.0000 0.0000 0.0000 0.0000 10.7836 -1.2852 -19.2047 -8.4546 -16.4436 54.1839 -0.0038 10.5019 15.0134 -0.8175 5.7694 -16.1168 -0.1116 -0.4162 -0.7124 0.1351 -0.5471 1.7333 0.1869 -0.2727 2.1774 -15.5776 -14.0995 -16.2121 13.3298 -18.8524 19.6075 4.1674 -8.3261 11.9285 0.0000 -0.0000 0.0000 -0.0000 0.0000 -0.0000 -0.0000 0.0000 -0.0000 -0.0000 -0.0000 0.0000 -0.0000 -0.0000 0.0000 -0.0000 -0.0000 0.0000 0.0000 0.0000 0.0000 0.0000 -0.0000 0.0000 0.0000 -0.0000 -0.0000 0.0000 -0.0000 -0.0000 0.0000 0.0000 0.0000 0.0000 0.0000 0.0000 0.0000 0.0000 0.0000 0.0000 -0.0000 0.0000
10.2926 14.5799 3.2076 -80.0984 89.6429 -83.3473 0.0000 0.0000 0.0000 -9.2164 -1.5868 -20.8641 9.4093 17.0640 57.4952 0.0000 0.0000 0.0000 0.0000 0.0000 0.0000 0.0000 0.0000 0.0000 10.8651 -1.3084 -19.2573 -8.5147 -16.4851 54.3961 -0.0206 10.3874 15.1112 -0.8300 5.8123 -16.2409 -0.0756 -0.4232 -0.7211 0.1639 -0.5574 1.7552 0.1958 -0.2774 2.2048 -15.4677 -14.0685 -16.2429 13.1843 -18.7892 19.5759 4.1103 -8.3062 11.8814 -0.0000 0.0000 0.0000 -0.0000 0.0000 -0.0000 -0.0000 0.0000 -0.0000 -0.0000 -0.0000 0.0000 -0.0000 -0.0000 0.0000 -0.0000 -0.0000 0.0000 0.0000 0.0000 0.0000 -0.0000 0.0000 0.0000 0.0000 -0.0000 -0.0000 0.0000 -0.0000 -0.0000 0.0000 0.0000 0.0000 0.0000 0.0000 0.0000 0.0000 0.0000 0.0000 0.0000 -0.0000 0.0000
10.2956 14.5782 3.2115 -86.8677 89.5154 -90.1965 0.0000 0.0000 0.0000 -9.0383 -1.5876 -20.7795 9.4181 17.0694 57.5250 0.0000 0.0000 0.0000 0.0000 0.0000 0.0000 0.0000 0.0000 0.0000 11.0303 -1.3605 -19.2055 -8.5346 -16.4987 54.4661 -0.0283 10.3651 15.1974 -0.7706 5.6051 -15.6429 -0.0125 -0.4365 -0.6895 0.2089 -0.5769 1.7826 0.2063 -0.2862 2.2151 -15.4232 -14.0368 -16.2281 13.1682 -18.7394 19.4676 4.1091 -8.2868 11.8223 0.0000 0.0000 0.0000 -0.0000 0.0000 -0.0000 -0.0000 0.0000 -0.0000 -0.0000 -0.0000 0.0000 -0.0000 -0.0000 0.0000 -0.0000 -0.0000 0.0000 0.0000 0.0000 0.0000 0.0000 0.0000 0.0000 0.0000 -0.0000 -0.0000 0.0000 -0.0000 -0.0000 0.0000 0.0000 0.0000 0.0000 0.0000 0.0000 0.0000 0.0000 0.0000 0.0000 -0.0000 0.0000
10.2967 14.5777 3.2115 -91.9233 89.5874 -95.2941 0.0000 0.0000 0.0000 -9.1494 -1.6454 -20.7231 9.4280 17.0754 57.5590 0.0000 0.0000 0.0000 0.0000 0.0000 0.0000 0.0000 0.0000 0.0000 10.9267 -1.4511 -19.1761 -8.5390 -16.5017 54.4818 -0.0292 10.3692 15.2170 -0.7775 5.6299 -15.7144 -0.0886 -0.4454 -0.6659 0.1776 -0.5866 1.7995 0.2166 -0.2921 2.2197 -15.3899 -14.0371 -16.3441 13.1150 -18.7301 19.5580 4.0811 -8.2780 11.8670 -0.0000 0.0000 0.0000 -0.0000 0.0000 -0.0000 -0.0000 0.0000 -0.0000 -0.0000 -0.0000 0.0000 -0.0000 -0.0000 0.0000 -0.0000 -0.0000 0.0000 0.0000 0.0000 0.0000 -0.0000 0.0000 0.0000 0.0000 -0.0000 -0.0000 0.0000 -0.0000 -0.0000 0.0000 0.0000 0.0000 0.0000 0.0000 0.0000 0.0000 0.0000 0.0000 0.0000 -0.0000 0.0000
10.2992 14.5768 3.2121 -92.4280 89.5732 -95.8057 0.0000 0.0000 0.0000 -9.1378 -1.6489 -20.7221 9.4393 17.0823 57.5973 0.0000 0.0000 0.0000 0.0000 0.0000 0.0000 0.0000 0.0000 0.0000 10.9363 -1.4883 -19.2222 -8.5606 -16.5165 54.5578 -0.0446 10.2370 15.2671 -0.8546 5.8955 -16.4816 -0.0775 -0.4482 -0.6918 0.1745 -0.5904 1.8090 0.2069 -0.2938 2.2439 -15.3928 -14.0392 -16.5548 13.0680 -18.7157 19.7530 4.0572 -8.2610 11.9736 0.0000 0.0000 0.0000 -0.0000 0.0000 -0.0000 -0.0000 0.0000 -0.0000 -0.0000 -0.0000 0.0000 -0.0000 -0.0000 0.0000 -0.0000 -0.0000 0.0000 0.0000 0.0000 0.0000 0.0000 0.0000 0.0000 0.0000 -0.0000 -0.0000 0.0000 -0.0000 -0.0000 0.0000 0.0000 0.0000 0.0000 0.0000 0.0000 0.0000 0.0000 0.0000 0.0000 -0.0000 0.0000
